<?xml version="1.0" standalone="no"?>
<!DOCTYPE svg PUBLIC "-//W3C//DTD SVG 20010904//EN"
 "http://www.w3.org/TR/2001/REC-SVG-20010904/DTD/svg10.dtd">
<svg version="1.0" xmlns="http://www.w3.org/2000/svg"
 width="500.000000pt" height="607.000000pt" viewBox="0 0 500.000000 607.000000"
 preserveAspectRatio="xMidYMid meet">

<g transform="translate(0.000000,607.000000) scale(0.100000,-0.100000)"
fill="#000000" stroke="none">
<path d="M0 5043 l0 -1028 72 3 c40 2 87 10 105 18 17 7 36 14 42 14 6 0 11 5
11 10 0 6 16 20 35 31 19 12 35 27 35 35 0 13 13 19 33 15 5 -1 6 3 2 8 -3 6
5 15 17 22 13 6 30 18 38 26 8 7 27 23 42 34 23 17 28 28 28 62 0 22 6 56 12
75 11 28 10 36 -2 45 -8 7 -22 26 -30 42 -8 17 -18 32 -21 35 -4 3 -16 22 -28
43 -35 63 -24 224 18 258 16 13 21 29 21 62 0 25 7 58 15 73 17 33 20 80 5 89
-5 3 -10 15 -10 25 0 10 -6 23 -13 27 -27 18 -52 153 -28 153 6 0 26 17 45 38
31 32 36 43 36 88 0 62 13 71 118 77 73 4 74 5 124 56 27 28 52 51 55 51 3 0
17 8 31 19 15 10 44 21 66 24 21 3 44 14 51 23 9 13 38 19 124 27 l111 10 40
41 c22 22 40 43 40 46 0 16 192 200 209 200 10 0 21 6 24 13 5 13 35 22 165
49 55 12 75 10 225 -27 53 -12 59 -12 64 3 10 27 49 62 80 72 129 41 173 39
-949 40 l-1058 0 0 -1027z"/>
<path d="M2415 6063 c25 -6 84 -50 108 -80 10 -13 29 -23 43 -23 17 0 27 -8
34 -25 6 -15 20 -27 37 -31 49 -10 53 -13 53 -38 0 -16 8 -30 23 -37 12 -7 38
-30 57 -52 60 -69 124 -127 141 -127 5 0 9 -15 9 -33 0 -36 25 -67 53 -67 10
0 17 -10 19 -27 2 -18 15 -35 37 -50 19 -13 31 -23 27 -23 -4 0 2 -9 13 -21
11 -12 24 -33 31 -48 6 -15 24 -35 41 -45 17 -10 28 -20 25 -24 -3 -3 8 -13
24 -23 25 -16 30 -25 30 -57 0 -22 -5 -54 -11 -71 -13 -36 -56 -87 -70 -84 -5
2 -8 -1 -6 -5 5 -17 -68 -72 -95 -72 -28 0 -28 -1 -28 -64 0 -80 -10 -157 -20
-151 -5 3 -6 -4 -3 -16 3 -12 1 -24 -5 -28 -6 -3 -11 -49 -13 -104 -2 -77 0
-100 12 -108 25 -16 37 -10 49 26 6 19 17 41 23 48 7 6 18 23 25 37 7 14 18
34 25 46 19 33 158 164 174 164 7 0 25 11 39 25 28 28 61 46 122 65 23 7 42
17 42 21 0 11 176 50 256 56 48 4 73 2 78 -6 5 -8 -8 -11 -42 -11 -26 0 -73
-7 -103 -16 -55 -16 -86 -34 -58 -34 17 0 79 -89 79 -112 0 -20 -64 -41 -103
-33 -32 7 -67 35 -67 55 0 16 -93 12 -159 -9 -137 -43 -267 -187 -351 -391
-51 -123 -89 -307 -90 -427 0 -44 3 -53 18 -53 33 0 58 -62 67 -165 27 -324
29 -335 62 -335 23 0 25 3 19 33 -4 17 -9 120 -12 227 -4 156 -2 200 10 222
13 24 12 27 -5 31 -16 4 -19 15 -19 70 0 70 12 90 45 77 26 -10 58 -46 61 -68
1 -9 7 -55 13 -102 6 -46 11 -121 11 -165 0 -78 15 -236 26 -282 5 -16 13 -23
31 -23 24 0 25 2 18 43 -4 23 -7 47 -6 52 9 121 33 300 42 311 8 10 8 14 0 14
-12 0 -15 98 -5 138 11 40 53 25 81 -27 23 -44 23 -48 18 -274 -2 -126 -7
-233 -11 -238 -8 -14 38 -49 61 -46 24 3 72 120 90 226 14 76 53 151 80 151 8
0 20 -10 26 -22 15 -27 7 -133 -14 -179 -18 -41 -48 -160 -53 -212 -2 -21 -6
-42 -9 -47 -3 -5 -8 -46 -11 -91 -4 -70 -1 -98 21 -181 15 -53 30 -96 34 -95
3 1 28 -15 54 -37 36 -30 50 -50 62 -90 10 -34 12 -52 5 -54 -7 -3 -6 -10 2
-20 12 -15 11 -16 -4 -3 -10 7 -16 17 -13 21 3 5 -9 20 -27 34 -33 25 -46 27
-32 5 15 -25 15 -126 0 -192 -9 -37 -13 -80 -10 -95 5 -26 2 -31 -24 -40 -42
-14 -99 7 -137 51 -16 18 -48 45 -70 59 -38 24 -47 25 -135 21 -113 -6 -159 8
-190 59 -25 41 -26 110 -2 150 17 29 104 78 165 93 32 8 32 9 42 53 l7 33 -44
-26 c-58 -36 -117 -74 -150 -96 -31 -22 -37 -17 -67 58 -11 28 -38 84 -60 125
-33 62 -40 84 -42 138 -1 36 -6 89 -12 119 -9 46 -8 56 6 66 14 10 16 22 9 81
-11 92 -9 294 2 318 8 16 6 18 -12 14 -19 -5 -22 -2 -22 20 0 21 -2 24 -10 12
-5 -8 -10 -59 -10 -112 0 -97 -3 -106 -35 -98 -5 1 -44 3 -85 4 -61 1 -81 5
-108 25 -35 25 -54 21 -34 -7 12 -17 19 -32 48 -100 31 -73 -5 -181 -85 -255
-67 -62 -121 -87 -193 -87 -69 0 -86 13 -113 88 -24 65 -37 66 -105 8 -58 -50
-119 -71 -184 -64 -70 8 -170 61 -225 118 -26 27 -53 50 -59 50 -7 0 -15 12
-18 28 -9 36 -62 112 -78 112 -20 0 -121 110 -146 160 l-23 45 -14 -41 c-28
-84 -69 -149 -113 -178 -37 -25 -51 -29 -102 -27 -40 1 -58 -1 -53 -8 3 -6 14
-11 25 -11 10 0 20 -7 24 -15 5 -14 -6 -19 -41 -18 -7 1 -13 -4 -13 -9 0 -5
-10 -6 -22 -2 -13 4 -30 8 -38 9 -8 0 -28 7 -43 15 -35 17 -46 4 -42 -46 2
-18 -5 -49 -16 -70 -10 -21 -16 -40 -14 -43 3 -2 23 13 45 34 44 43 47 42 25
-12 -15 -35 -15 -36 2 -21 10 8 25 19 33 23 13 8 13 7 1 -11 -30 -39 -65 -74
-75 -74 -6 0 -28 -15 -50 -33 -33 -28 -35 -33 -17 -34 11 -1 26 6 33 16 7 9
23 18 36 18 19 2 22 -2 16 -20 -3 -12 -13 -33 -22 -47 -23 -35 -62 -113 -62
-123 0 -5 -11 -32 -25 -60 -13 -29 -31 -77 -39 -107 l-16 -55 4 55 c2 30 7 65
11 78 5 16 3 22 -8 22 -27 0 -146 40 -160 54 -7 7 -24 17 -37 21 -36 12 -70
35 -70 50 0 7 -18 24 -40 39 -22 15 -40 34 -40 45 0 17 -29 51 -43 51 -3 0
-17 11 -31 25 -14 14 -34 25 -44 25 -21 0 -32 34 -32 96 0 45 -19 82 -43 86
-14 2 -24 14 -29 36 -5 17 -15 32 -22 32 -9 0 -17 20 -22 58 -9 55 -10 57 -41
60 -29 3 -33 7 -33 33 0 17 -5 29 -13 29 -7 0 -20 9 -30 20 -9 11 -26 20 -38
20 -30 0 -89 30 -89 46 0 7 -4 16 -10 19 -7 4 -10 -642 -10 -1929 l0 -1936
510 0 510 0 0 23 c0 12 9 30 20 40 11 9 20 25 20 35 0 38 31 120 55 148 15 16
33 42 41 57 19 36 26 44 133 155 49 50 94 92 99 92 5 0 22 13 38 30 31 31 77
40 91 17 10 -16 68 -57 81 -57 6 0 13 18 17 39 4 22 13 45 21 52 8 6 14 18 14
25 0 7 25 39 55 69 33 34 55 65 55 78 0 12 9 36 20 52 11 17 20 45 20 63 0 17
5 32 10 32 6 0 10 5 10 10 0 6 -6 10 -13 10 -7 0 -22 8 -33 18 -11 9 -29 22
-40 28 -14 8 -22 30 -31 80 -17 97 -25 128 -34 135 -11 6 -43 188 -35 196 3 3
8 -8 11 -23 3 -16 15 -65 26 -109 11 -44 28 -116 38 -159 12 -55 24 -84 39
-97 34 -27 162 -95 264 -140 86 -38 102 -50 223 -167 141 -137 222 -190 309
-199 62 -7 128 19 177 69 l38 39 152 -26 c84 -14 213 -28 287 -32 l135 -6 -8
-96 c-4 -53 -10 -163 -14 -246 l-6 -150 -40 -7 c-70 -12 -297 -9 -411 7 -368
49 -776 171 -1089 327 -122 61 -255 139 -264 156 -10 18 -45 2 -61 -28 -12
-23 4 -37 24 -21 10 9 15 7 18 -7 4 -15 1 -18 -16 -15 -28 5 -144 -71 -159
-104 -6 -14 -26 -41 -44 -61 -18 -20 -33 -41 -33 -47 0 -7 -18 -20 -41 -30
-48 -22 -83 -61 -99 -110 -16 -49 -7 -54 18 -11 25 43 66 70 106 72 17 0 47 4
66 7 l35 7 -36 -14 c-94 -36 -129 -63 -129 -97 0 -12 -3 -20 -6 -17 -3 4 -13
0 -22 -8 -9 -8 -32 -26 -49 -40 -18 -14 -33 -30 -33 -35 0 -5 619 -9 1536 -9
1365 0 1535 2 1524 15 -7 8 -20 15 -30 15 -9 0 -27 9 -40 20 -13 11 -28 20
-33 20 -6 0 -18 7 -27 15 -10 9 -30 18 -45 21 -14 2 -39 16 -53 29 -15 14 -34
25 -43 25 -9 0 -19 7 -23 15 -3 8 -14 15 -24 15 -11 0 -36 11 -56 25 -20 14
-40 25 -44 25 -4 0 -14 9 -21 19 -9 11 -21 17 -30 13 -14 -5 -14 -4 -2 12 13
16 12 17 -10 11 -14 -3 -37 -1 -53 5 -24 9 -26 13 -16 25 7 9 10 18 6 22 -3 3
-6 1 -6 -6 0 -8 -6 -7 -16 4 -14 13 -19 14 -25 3 -7 -10 -9 -9 -9 4 0 9 6 19
13 21 9 4 9 6 0 6 -6 1 -15 -3 -18 -9 -3 -5 -11 -10 -17 -10 -12 0 -2 190 14
263 7 35 7 52 -1 60 -16 16 -14 27 5 27 14 0 15 -9 10 -67 -18 -199 -18 -223
-6 -238 7 -8 21 -15 32 -15 14 0 18 -5 15 -14 -4 -10 -1 -13 9 -9 8 3 34 -4
59 -16 25 -12 51 -21 59 -21 8 0 21 -6 28 -13 7 -7 34 -23 61 -36 26 -12 47
-26 47 -31 0 -4 27 -18 60 -30 33 -12 64 -28 68 -34 4 -7 32 -22 62 -35 30
-13 60 -28 65 -34 10 -12 64 -40 98 -51 10 -3 15 -10 12 -16 -3 -6 1 -7 9 -4
12 5 16 0 16 -20 l0 -26 400 0 400 0 -1 1903 c0 1112 -4 1893 -9 1880 -11 -26
-59 -38 -130 -31 -27 3 -47 1 -44 -4 3 -4 -2 -8 -11 -8 -9 0 -15 6 -13 13 3 7
34 15 78 19 77 8 115 25 124 56 9 28 -11 75 -28 69 -18 -7 -61 34 -73 71 -31
88 -33 94 -16 88 12 -5 11 1 -5 26 -21 33 -32 42 -66 53 -14 4 -16 9 -8 17 8
8 15 8 25 0 8 -7 17 -9 20 -5 12 11 7 86 -8 128 -8 21 -12 41 -10 43 9 10 25
-11 25 -34 0 -13 5 -24 10 -24 6 0 10 -26 10 -57 1 -32 7 -69 15 -83 8 -14 14
-46 15 -72 0 -49 7 -61 61 -103 14 -11 28 -27 32 -35 3 -8 6 474 6 1073 l1
1087 -1302 -1 c-717 -1 -1294 -4 -1283 -6z m1585 -1053 c0 -5 -21 -10 -47 -9
-36 0 -43 3 -28 9 28 12 75 12 75 0z m60 -10 c0 -5 -9 -10 -20 -10 -11 0 -20
5 -20 10 0 6 9 10 20 10 11 0 20 -4 20 -10z m114 -17 c34 -9 63 -20 66 -24 3
-4 31 -17 63 -29 31 -12 63 -27 70 -34 7 -7 32 -25 55 -40 76 -48 212 -199
212 -236 0 -5 4 -10 9 -10 5 0 22 -26 37 -57 15 -32 30 -60 35 -63 14 -9 39
-77 39 -105 0 -15 7 -28 18 -32 22 -8 31 -23 25 -39 -3 -9 -11 -8 -33 3 -21
10 -33 26 -40 54 -6 21 -14 39 -18 39 -14 0 -44 60 -47 94 -7 74 -126 227
-248 318 -88 66 -160 102 -274 139 -114 37 -87 55 31 22z m141 -261 c-3 -3
-11 0 -18 7 -9 10 -8 11 6 5 10 -3 15 -9 12 -12z m330 -242 c4 -17 15 -35 26
-40 24 -13 25 -30 1 -30 -26 0 -71 73 -51 85 5 4 6 11 3 17 -4 6 -2 8 4 4 6
-3 13 -20 17 -36z m-377 8 c14 -14 16 -38 3 -38 -15 0 -42 31 -36 41 8 12 19
11 33 -3z m-172 -214 c-3 -26 -6 -61 -6 -79 0 -31 -2 -33 -42 -37 -75 -7 -111
3 -119 35 -4 16 -3 27 3 27 6 0 8 7 5 15 -7 16 15 64 35 76 7 5 39 9 72 9 l59
0 -7 -46z m-840 -35 c21 -41 17 -49 -5 -13 -11 18 -24 35 -30 38 -6 4 -11 12
-11 18 0 16 29 -11 46 -43z m644 -14 c0 -27 -17 -42 -31 -28 -13 13 7 67 21
58 5 -3 10 -17 10 -30z m-807 -10 c-3 -9 -8 -14 -10 -11 -3 3 -2 9 2 15 9 16
15 13 8 -4z m1134 -381 c-3 -3 -12 -4 -19 -1 -8 3 -5 6 6 6 11 1 17 -2 13 -5z
m534 -95 c-11 -12 -22 -43 -26 -75 -3 -30 -11 -54 -16 -54 -6 0 -8 8 -5 18 2
9 7 33 11 52 8 48 26 80 42 80 10 0 8 -6 -6 -21z m-822 -72 c6 -8 17 -29 25
-48 18 -45 0 -122 -37 -153 -13 -11 -28 -30 -32 -41 -14 -39 -17 6 -5 68 16
79 18 93 19 145 1 43 10 52 30 29z m768 -129 c-3 -8 -6 -5 -6 6 -1 11 2 17 5
13 3 -3 4 -12 1 -19z m-869 -144 c3 -46 0 -52 -37 -88 l-40 -39 -12 47 c-6 25
-15 49 -20 52 -10 6 -12 48 -3 80 5 20 8 20 57 9 l52 -11 3 -50z m848 -19 c-9
-18 -16 -38 -16 -43 0 -6 -6 -17 -13 -24 -26 -27 -36 -67 -30 -117 6 -53 -31
-231 -48 -231 -5 0 -9 -6 -9 -14 0 -19 -52 -139 -63 -147 -5 -4 -14 -47 -20
-95 -10 -87 -12 -90 -54 -128 -24 -21 -43 -45 -43 -52 0 -7 -8 -20 -17 -30
-28 -27 -40 -76 -36 -140 4 -67 -11 -48 -22 28 -6 39 -2 54 29 114 20 38 47
88 62 111 l26 42 -24 5 c-13 2 -54 9 -93 16 -85 14 -284 77 -307 97 -20 18
-36 -1 -18 -22 13 -16 8 -82 -11 -142 -21 -65 -36 -41 -79 118 -17 63 -40 133
-50 156 l-18 41 23 6 c12 3 25 15 28 26 4 17 11 19 31 14 25 -6 26 -5 19 26
-4 23 -3 31 5 26 6 -4 9 -13 5 -21 -3 -10 -1 -13 9 -10 20 8 62 122 60 161 -2
26 6 43 44 86 54 61 62 66 70 43 6 -15 75 -51 164 -86 20 -8 68 -13 110 -13
134 2 206 53 251 178 13 36 27 66 31 66 5 0 9 8 9 18 1 11 3 8 6 -6 3 -13 -3
-38 -11 -57z m-1922 -25 c11 -22 23 -40 27 -40 15 0 49 -68 49 -98 0 -17 4
-33 9 -36 4 -3 7 -18 7 -33 -1 -15 6 -39 15 -53 9 -14 26 -52 38 -85 13 -33
28 -67 35 -75 7 -8 29 -47 49 -85 32 -63 36 -81 40 -163 3 -54 1 -95 -5 -98
-12 -8 -164 146 -173 175 -3 12 -9 21 -13 21 -4 0 -20 14 -37 30 -16 17 -42
42 -57 57 -16 14 -28 32 -28 40 0 7 -4 13 -10 13 -5 0 -10 7 -10 16 0 8 -5 12
-10 9 -6 -3 -13 1 -16 9 -3 9 -12 16 -19 16 -7 0 -19 13 -26 28 -10 23 -19 29
-41 28 -20 -1 -27 -5 -23 -15 4 -11 3 -11 -9 -2 -8 7 -12 20 -9 28 5 13 2 15
-11 10 -53 -21 -61 -19 -74 16 -17 47 -17 47 28 47 31 0 40 -4 40 -17 0 -15 2
-16 9 -3 6 8 7 18 5 22 -3 4 0 8 5 8 6 0 11 -5 11 -11 0 -6 9 -8 23 -3 30 9
32 11 17 29 -11 13 -10 14 3 9 11 -4 20 2 28 20 7 14 18 26 26 26 7 0 13 7 13
15 0 8 7 15 16 15 12 0 14 3 6 13 -18 22 -5 108 21 134 12 12 24 22 27 22 3 1
14 -17 24 -39z m-1331 -544 c8 -8 19 -27 24 -43 6 -15 25 -65 42 -111 17 -46
31 -94 31 -107 0 -28 -42 -61 -61 -49 -7 4 -9 3 -6 -3 3 -5 -28 -26 -69 -46
-42 -21 -73 -33 -69 -27 10 17 -12 11 -26 -7 -12 -14 -12 -16 0 -8 10 5 12 4
7 -4 -8 -12 -63 -43 -70 -39 -9 6 -49 -39 -65 -74 l-17 -38 -24 32 c-46 62
-116 173 -134 212 -17 37 -17 41 -2 73 20 43 112 128 178 166 40 23 210 84
240 86 4 1 13 -5 21 -13z m-508 -233 c40 -119 203 -458 245 -507 14 -17 87
-123 162 -236 75 -113 145 -210 155 -216 23 -14 78 -92 70 -100 -6 -7 -127
110 -127 123 0 5 -10 19 -23 33 -13 14 -36 48 -52 75 -16 27 -38 58 -47 67
-10 10 -18 24 -18 32 0 7 -10 24 -22 37 -13 14 -34 46 -48 73 -14 26 -33 52
-42 57 -9 5 -27 30 -40 56 -13 27 -26 50 -30 53 -3 3 -19 34 -34 70 -16 36
-31 67 -35 70 -9 7 -59 116 -59 129 0 6 -4 11 -9 11 -5 0 -12 10 -16 23 -17
63 -41 133 -48 138 -14 10 -37 120 -36 172 l1 52 9 -52 c5 -28 25 -100 44
-160z m2466 53 c-7 -8 -34 -23 -59 -32 -26 -9 -67 -25 -91 -35 l-43 -19 6 28
c4 15 10 39 13 55 5 25 9 27 57 28 28 1 62 4 76 9 33 10 59 -12 41 -34z m864
-16 c3 -5 17 -10 29 -10 23 0 23 -1 10 -50 -7 -28 -22 -62 -34 -77 -11 -14
-20 -34 -20 -45 0 -19 -20 -68 -42 -103 -22 -34 -72 -74 -79 -64 -4 6 -15 0
-26 -15 l-20 -25 -11 37 c-10 33 -10 35 3 18 14 -19 15 -19 15 7 0 15 -4 27
-8 27 -9 0 -10 80 -1 95 4 6 9 27 13 48 4 21 14 41 22 44 8 3 13 12 10 19 -3
8 0 11 8 8 9 -3 15 6 19 25 7 34 37 44 37 13 0 -28 11 -34 26 -14 18 23 17 32
-1 32 -8 0 -15 9 -15 20 0 15 7 20 29 20 17 0 33 -4 36 -10z m-804 -32 c13
-13 35 -38 47 -55 13 -18 29 -33 36 -33 34 0 35 -25 6 -124 -15 -54 -31 -100
-34 -103 -3 -3 -22 7 -42 23 -40 32 -104 68 -147 84 -24 8 -27 13 -22 32 11
34 58 109 93 147 18 18 32 37 32 42 0 13 5 11 31 -13z m601 -233 c-6 -34 -12
-32 -12 6 0 16 4 28 9 25 4 -3 6 -17 3 -31z m274 -149 c-4 -18 -22 -49 -40
-70 -19 -20 -38 -51 -42 -68 -3 -18 -13 -38 -20 -45 -17 -17 -34 -80 -44 -157
-4 -33 -12 -62 -17 -63 -6 -2 -24 -15 -40 -29 -15 -13 -31 -24 -35 -24 -4 0
-10 -10 -14 -22 -7 -23 -35 -53 -277 -298 -142 -144 -170 -168 -202 -176 -50
-12 -45 3 11 40 81 54 428 409 463 474 6 12 27 28 45 36 35 15 51 43 48 86 -3
38 85 249 119 288 17 19 33 48 36 65 9 42 17 7 9 -37z m-2475 -242 c11 -14 9
-20 -20 -44 -36 -29 -36 -35 2 -78 l21 -22 -38 -39 -38 -38 33 -37 32 -37 33
32 c38 37 41 50 18 69 -36 31 -36 48 2 74 l36 24 31 -35 c18 -20 26 -37 20
-41 -5 -4 -22 -17 -38 -30 l-28 -22 28 -40 27 -39 -31 -27 c-38 -32 -39 -45
-2 -86 l29 -32 35 27 c20 15 38 27 41 27 3 0 17 -16 32 -35 l27 -36 -33 -34
-32 -33 28 -36 c16 -20 33 -36 38 -36 6 0 22 12 38 27 l28 27 26 -25 26 -24
-33 -27 c-39 -33 -53 -35 -72 -8 -13 19 -15 18 -47 -15 l-34 -35 22 -23 22
-23 -39 -38 -39 -38 -15 23 c-15 21 -15 24 13 56 17 19 30 37 30 41 0 4 -14
25 -31 45 l-32 38 32 33 c17 17 31 36 31 41 -1 6 -14 25 -29 43 l-29 33 -36
-32 -37 -32 -29 28 c-17 16 -30 33 -30 39 0 5 14 25 31 42 l31 32 -27 36 c-15
20 -32 36 -37 36 -5 0 -24 -14 -41 -31 l-31 -32 -33 39 -34 39 -38 -42 -38
-42 -30 37 c-30 37 -31 37 -52 18 -21 -19 -21 -19 -21 6 0 32 10 41 28 26 12
-10 20 -5 48 27 l33 40 36 -35 35 -34 36 36 37 36 -28 36 c-15 20 -31 36 -36
36 -4 0 -24 -16 -43 -36 l-35 -36 -16 26 c-17 25 -16 27 15 67 l33 41 25 -26
25 -25 39 31 c37 29 38 31 23 54 -20 30 -20 31 13 48 35 20 47 20 63 0z m116
-15 l35 -22 -29 -23 c-15 -13 -31 -23 -35 -24 -3 0 -18 14 -32 31 -25 30 -26
32 -9 45 24 18 30 17 70 -7z m1092 -73 c10 -12 9 -14 -6 -10 -19 5 -51 -38
-214 -295 -48 -77 -52 -85 -35 -95 101 -62 177 -144 225 -241 33 -67 36 -75
22 -75 -5 0 -12 12 -16 28 -18 74 -125 204 -216 263 l-49 31 16 31 c24 49 245
377 254 377 4 0 13 -6 19 -14z m-970 -67 l24 -31 -29 -24 c-16 -13 -32 -23
-36 -24 -3 0 -16 16 -28 35 l-22 35 24 20 c31 26 39 24 67 -11z m1142 -72 c33
-45 62 -97 55 -97 -2 0 -16 20 -30 44 -14 24 -54 70 -88 102 -61 56 -62 56
-15 25 27 -18 62 -51 78 -74z m-94 15 c21 -16 21 -18 5 -39 -17 -22 -17 -22
-40 -3 -19 16 -21 23 -12 40 13 24 19 25 47 2z m-77 -23 c0 -36 -24 -48 -54
-26 -15 11 -17 17 -7 35 10 19 15 20 36 10 14 -6 25 -15 25 -19z m-982 -48
l31 -38 -33 -32 -33 -32 -33 42 -34 42 35 28 c19 16 34 29 35 29 0 0 15 -17
32 -39z m143 -43 l20 -28 -28 -24 c-31 -27 -39 -24 -75 27 l-22 30 29 23 c32
25 41 22 76 -28z m931 25 c21 -19 23 -34 6 -51 -9 -9 -17 -7 -34 9 -19 18 -21
24 -11 40 14 23 16 23 39 2z m81 -7 c14 -21 14 -26 1 -42 -14 -18 -15 -18 -34
4 -16 19 -17 27 -7 43 15 25 21 24 40 -5z m-162 -2 c14 -13 16 -21 8 -35 -12
-23 -27 -24 -50 -3 -15 13 -16 20 -6 35 14 23 25 24 48 3z m-94 -12 c21 -16
21 -18 5 -39 -17 -22 -18 -22 -41 -4 -21 16 -22 20 -10 39 16 26 18 26 46 4z
m331 -37 c-3 -3 -9 2 -12 12 -6 14 -5 15 5 6 7 -7 10 -15 7 -18z m-1488 -94
c-4 -9 -21 -29 -38 -44 l-29 -28 -27 36 -27 35 32 41 32 40 33 -32 c24 -24 31
-36 24 -48z m1360 29 c0 -10 -6 -23 -13 -29 -11 -8 -18 -6 -32 9 -16 18 -17
23 -5 45 13 24 15 24 32 8 10 -9 18 -24 18 -33z m-1518 -62 l-33 -33 3 40 c3
38 2 40 -24 37 -34 -4 -35 4 -6 35 l22 24 35 -36 36 -35 -33 -32z m1432 83
c15 -17 15 -19 -1 -39 -18 -21 -19 -21 -42 -3 -21 16 -22 20 -10 39 17 27 31
28 53 3z m154 -38 c-5 -26 -23 -26 -38 1 -11 21 -11 28 0 41 11 14 14 13 27
-5 8 -11 13 -28 11 -37z m-248 29 c21 -17 21 -18 3 -41 -18 -23 -19 -23 -42
-4 -21 17 -22 21 -10 41 17 27 21 27 49 4z m-786 -34 l25 -33 -32 -33 -32 -33
-27 33 c-15 18 -28 37 -28 43 0 10 50 54 62 55 4 0 18 -15 32 -32z m690 19
c18 -13 18 -15 2 -40 -15 -23 -21 -24 -42 -15 -27 13 -29 20 -12 48 15 23 27
25 52 7z m-585 -52 c0 -11 -5 -30 -12 -43 l-13 -22 -24 31 -23 32 29 23 c30
25 44 18 43 -21z m791 -40 c0 -6 -6 -20 -14 -30 -14 -19 -15 -19 -34 5 -18 22
-18 26 -4 47 14 22 16 23 33 7 11 -10 19 -22 19 -29z m-83 -2 c2 -5 -5 -21
-16 -34 l-20 -24 -21 21 c-21 21 -21 23 -5 48 16 24 20 25 38 13 12 -8 22 -18
24 -24z m153 17 c8 -14 8 -26 -1 -41 l-11 -21 -20 20 c-16 16 -18 23 -9 41 15
26 27 27 41 1z m-1379 -81 l19 -27 -27 -33 -27 -32 -28 34 c-34 40 -34 43 -7
80 23 33 33 30 70 -22z m132 16 l28 -34 -33 -42 -33 -41 -32 38 -31 38 30 38
c16 21 33 38 36 37 4 0 20 -16 35 -34z m1172 -39 c14 -20 14 -28 3 -45 -17
-28 -32 -26 -48 4 -12 22 -11 27 5 45 22 25 21 25 40 -4z m383 -86 c7 0 12 -4
12 -10 0 -13 -36 -13 -60 0 -15 8 -20 6 -25 -10 -12 -36 -28 -22 -20 17 10 54
13 56 49 28 18 -14 38 -25 44 -25z m-791 32 c31 -20 104 -236 128 -381 17
-102 12 -114 -58 -147 -68 -31 -240 -76 -275 -72 -25 3 -28 9 -46 83 -10 44
-33 127 -51 185 -18 58 -30 111 -27 119 9 25 42 -65 80 -221 27 -110 41 -148
52 -148 29 0 244 61 282 81 21 11 38 25 38 32 0 77 -115 447 -139 447 -15 0
-45 -9 -228 -68 -48 -15 -63 -17 -63 -7 0 13 101 54 213 86 72 21 78 21 94 11z
m-737 -101 c-1 -4 -14 -22 -31 -41 l-30 -35 -30 35 c-16 19 -29 37 -29 41 0 4
12 22 26 39 l27 31 33 -32 c19 -18 34 -35 34 -38z m1425 -26 c-3 -25 -13 -62
-22 -83 -10 -24 -16 -69 -17 -127 0 -76 3 -97 23 -135 13 -25 26 -47 30 -50 3
-3 12 -17 18 -32 8 -17 20 -28 33 -28 25 0 26 -18 3 -27 -10 -4 -20 -9 -23
-13 -3 -3 -22 -16 -42 -28 l-38 -21 -4 22 c-3 12 -7 38 -11 57 -3 19 -12 73
-20 119 -13 73 -13 91 0 150 19 82 67 241 73 241 2 0 1 -20 -3 -45z m-807 -46
c27 -53 38 -66 53 -62 11 3 19 12 19 20 0 36 34 2 60 -59 28 -68 28 -68 7 -68
-47 0 -50 -13 -20 -78 25 -52 27 -61 14 -65 -9 -3 -25 -8 -35 -13 -16 -6 -18
-4 -14 14 4 13 0 23 -8 26 -22 8 -16 26 9 27 21 0 21 1 -3 10 -19 8 -27 6 -36
-5 -6 -9 -18 -16 -26 -16 -8 0 -19 -5 -25 -11 -7 -7 -17 2 -32 33 -25 52 -27
72 -6 65 8 -4 17 -2 20 3 4 6 -6 10 -22 10 -23 0 -33 9 -55 45 -15 25 -31 57
-34 72 -6 22 -4 25 11 19 10 -3 26 -4 36 -1 17 6 18 9 4 35 -20 38 -19 57 3
63 35 10 46 1 80 -64z m901 -452 c-2 -2 -26 -18 -52 -36 -52 -35 -57 -48 -13
-31 45 17 59 13 52 -14 -27 -109 -39 -452 -15 -466 18 -12 1 -30 -48 -52 -34
-15 -48 -17 -57 -8 -8 8 -7 10 7 5 12 -5 17 -2 17 10 0 12 -5 15 -21 10 -20
-7 -20 -5 -13 102 6 89 10 110 25 121 25 17 24 42 0 42 -21 0 -21 15 1 150 5
36 11 77 11 93 2 22 12 33 52 56 28 16 52 27 54 25 2 -2 2 -6 0 -7z"/>
<path d="M2581 3087 c-12 -15 -5 -27 16 -27 7 0 13 9 13 20 0 23 -13 26 -29 7z"/>
<path d="M1303 2710 c-136 -52 -213 -103 -247 -162 l-19 -33 20 18 c12 10 30
17 40 16 10 -2 24 0 31 4 11 8 32 -27 32 -53 0 -5 4 -11 8 -14 5 -3 4 18 -1
46 -9 44 -8 53 8 64 10 7 15 20 12 28 -7 18 28 46 56 46 10 0 21 -9 24 -20 3
-11 9 -20 13 -20 14 0 32 29 24 41 -5 9 -1 11 14 7 13 -4 23 0 26 9 9 22 23 7
30 -32 4 -20 13 -35 21 -35 7 0 16 -6 18 -12 3 -7 6 -3 6 10 1 13 5 20 11 17
14 -9 13 -2 -6 31 l-16 29 6 -27 c5 -21 3 -28 -9 -28 -8 0 -15 6 -15 13 0 6
-3 23 -7 36 -5 20 -3 23 11 18 13 -5 17 -2 14 10 -5 26 -25 24 -105 -7z"/>
<path d="M1443 2671 c1 -12 5 -21 9 -21 4 0 5 -7 2 -15 -4 -8 -1 -15 6 -15 15
0 9 62 -7 67 -7 3 -11 -4 -10 -16z"/>
<path d="M1224 2623 c4 -16 9 -47 13 -70 3 -24 9 -43 14 -43 5 0 6 7 3 15 -8
21 37 57 54 43 8 -8 12 -7 12 3 0 8 9 20 20 27 12 7 20 8 20 2 0 -5 7 -10 15
-10 23 0 18 16 -10 34 -18 12 -23 13 -19 2 3 -7 -2 -16 -10 -19 -11 -5 -16 0
-16 13 0 11 -4 20 -10 20 -13 0 -13 -6 0 -31 9 -16 7 -19 -8 -19 -12 0 -24 11
-32 30 -17 41 -55 43 -46 3z"/>
<path d="M1070 2501 c0 -10 5 -32 11 -48 8 -24 15 -30 30 -26 26 7 32 19 23
46 l-8 22 -7 -25 c-6 -22 -7 -20 -8 13 -1 30 -5 37 -21 37 -13 0 -20 -7 -20
-19z"/>
<path d="M1102 2375 c0 -16 2 -22 5 -12 2 9 2 23 0 30 -3 6 -5 -1 -5 -18z"/>
<path d="M2500 1047 l-25 -11 28 -4 c32 -4 46 4 31 17 -5 5 -20 4 -34 -2z"/>
<path d="M2613 949 c-2 -19 11 -26 21 -10 3 5 0 14 -7 19 -10 8 -13 6 -14 -9z"/>
<path d="M2616 911 c-11 -4 -15 -10 -10 -13 5 -4 18 0 29 8 20 15 12 17 -19 5z"/>
<path d="M2418 5733 c7 -3 16 -2 19 1 4 3 -2 6 -13 5 -11 0 -14 -3 -6 -6z"/>
<path d="M2452 5552 c26 -16 28 -20 24 -78 -2 -34 -6 -66 -9 -72 -8 -11 52
-150 79 -185 23 -29 36 -61 51 -125 l10 -42 -59 -32 c-60 -32 -94 -68 -64 -68
9 0 45 12 81 27 l65 27 19 60 c16 51 22 61 43 64 18 2 27 -2 30 -16 3 -10 12
-19 21 -19 12 0 15 8 12 31 -3 18 3 9 14 -23 13 -40 20 -50 27 -40 28 43 47
92 23 59 -9 -12 -10 -12 -5 3 3 10 6 23 6 29 0 6 9 0 19 -13 l19 -24 26 28 26
28 -30 29 c-17 17 -27 30 -23 30 4 0 -6 9 -24 21 -17 11 -34 30 -37 43 -3 12
-17 28 -31 36 -14 7 -25 18 -25 23 0 18 -175 189 -209 203 -18 8 -50 14 -70
14 l-36 -1 27 -17z m217 -262 c10 -5 25 -19 33 -32 14 -22 14 -23 -9 -24 -13
-1 -32 -9 -42 -18 -18 -16 -19 -15 -29 11 -5 15 -13 37 -18 47 -6 16 -4 18 9
13 9 -3 17 -2 17 3 0 13 16 13 39 0z m-6 -120 c-3 -11 -9 -17 -14 -14 -14 8
-10 34 5 34 9 0 12 -7 9 -20z"/>
<path d="M1930 5384 c0 -5 -17 -10 -38 -10 -37 -1 -76 -20 -116 -56 -11 -10
-24 -18 -28 -18 -5 0 -14 -12 -21 -27 -6 -16 -14 -30 -17 -33 -13 -11 -39 -76
-42 -104 -2 -16 -13 -41 -25 -54 -13 -14 -23 -31 -23 -38 0 -7 -5 -14 -11 -16
-5 -2 -11 -11 -13 -21 -1 -10 -9 -26 -17 -35 -8 -10 -15 -41 -15 -77 -3 -135
-1 -128 -29 -123 -33 7 -55 -18 -32 -35 13 -9 15 -21 11 -49 -5 -30 -11 -38
-35 -43 -16 -4 -29 -11 -29 -17 0 -6 7 -7 16 -4 21 8 43 -20 44 -55 0 -15 8
-33 17 -40 15 -13 15 -12 6 5 -7 13 -8 29 -2 44 5 13 7 28 4 33 -4 5 -1 17 4
26 7 12 10 13 11 5 0 -8 7 -29 16 -47 18 -38 16 -126 -4 -133 -7 -2 -12 0 -11
5 3 18 -2 33 -11 33 -5 0 -10 -8 -10 -19 0 -10 -7 -24 -15 -31 -32 -27 -82 57
-73 122 4 23 -2 36 -24 58 -30 31 -34 27 -17 -16 15 -42 3 -71 -41 -96 -46
-26 -49 -34 -17 -43 12 -4 31 -15 42 -25 23 -19 85 -46 100 -43 14 3 36 -45
24 -53 -5 -3 -9 -10 -9 -15 0 -6 5 -7 10 -4 42 26 56 -101 19 -169 -11 -21
-18 -44 -15 -52 3 -7 0 -16 -6 -20 -7 -5 -8 -2 -3 7 4 8 -6 -1 -23 -19 -36
-37 -47 -80 -35 -136 l8 -38 33 80 c19 44 44 90 58 103 28 26 31 19 8 -16 -35
-54 -26 -177 13 -170 10 1 24 -2 31 -8 17 -13 15 -37 -3 -37 -8 0 -15 -4 -15
-9 0 -11 65 -61 79 -61 16 0 13 16 -4 30 -8 7 -15 19 -15 27 0 17 24 43 40 43
8 0 10 8 7 21 -3 11 0 22 7 25 13 5 16 68 3 80 -13 13 -7 24 14 24 11 0 17 -4
14 -10 -3 -5 1 -10 9 -10 9 0 21 -9 28 -20 7 -11 17 -20 23 -20 5 0 19 -14 30
-30 11 -17 28 -33 38 -36 9 -3 17 -10 17 -15 0 -5 19 -26 42 -47 22 -20 65
-71 94 -113 29 -41 66 -81 81 -88 43 -20 133 -32 154 -21 14 8 21 5 33 -12 9
-12 16 -33 16 -45 0 -27 4 -28 61 -7 24 8 73 21 109 28 36 7 64 17 63 22 -1 5
-24 50 -52 100 -48 88 -49 92 -39 135 6 24 12 45 14 47 5 7 102 -74 125 -105
13 -18 30 -35 37 -37 19 -8 14 22 -7 43 -11 11 -17 22 -13 25 3 4 -4 15 -16
26 -12 12 -22 32 -22 46 0 18 -8 27 -27 35 -16 6 -30 10 -33 9 -7 -2 -19 33
-19 62 -1 31 46 139 66 151 7 4 13 19 13 32 0 14 4 25 8 25 5 0 8 22 8 49 l-1
50 -22 -27 -22 -27 -47 25 c-36 19 -63 25 -110 25 -42 0 -59 -3 -54 -10 6 -7
-2 -10 -25 -7 -19 2 -32 8 -29 13 11 18 -31 8 -98 -22 -37 -18 -68 -36 -68
-41 0 -23 43 -88 82 -124 38 -35 55 -43 114 -53 100 -17 144 -32 144 -49 0
-23 -71 -81 -113 -93 -68 -18 -109 -14 -179 19 -37 18 -72 32 -77 32 -6 0 -34
24 -64 53 -29 28 -85 78 -125 111 -40 32 -84 75 -97 96 -13 21 -35 47 -49 58
-14 11 -26 24 -26 30 0 5 -6 15 -14 21 -15 13 -12 75 5 97 5 6 36 14 70 17 82
9 101 20 93 55 -13 50 -20 64 -92 170 -46 70 -64 140 -42 167 19 23 62 18 100
-14 19 -15 46 -32 60 -36 14 -4 41 -17 60 -30 61 -40 171 -47 234 -17 l35 17
-29 50 c-17 28 -34 49 -39 48 -5 -2 -22 4 -38 12 l-28 15 28 0 c15 0 35 -4 45
-9 35 -18 93 -41 102 -41 18 0 10 26 -12 46 -49 43 -102 58 -175 48 -38 -4
-106 -8 -153 -9 -69 0 -85 3 -85 15 0 24 112 74 170 77 64 3 64 3 40 13 -34
15 -88 10 -133 -10 -39 -17 -45 -18 -59 -5 -11 11 -13 27 -8 62 3 27 6 57 6
68 0 10 5 25 11 32 5 7 8 26 6 43 -3 16 -1 30 4 30 12 0 45 35 72 79 22 34 23
41 11 51 -8 7 -15 8 -15 4z m196 -589 c16 -13 17 -16 4 -25 -24 -16 -53 -12
-46 6 3 9 6 20 6 25 0 13 13 11 36 -6z m395 -588 c-6 -15 -15 -27 -21 -27 -17
0 -11 48 8 59 21 12 26 2 13 -32z m-133 20 c19 -22 -4 -40 -65 -48 -80 -11
-158 23 -126 54 12 13 180 8 191 -6z m-61 -78 c25 -1 44 -6 47 -14 6 -18 -15
-25 -75 -25 -36 0 -54 5 -69 20 -11 11 -24 20 -30 20 -5 0 -7 6 -4 14 5 13 11
13 47 0 23 -9 61 -15 84 -15z"/>
<path d="M2840 5041 c0 -25 6 -27 13 -6 4 8 2 17 -3 20 -6 4 -10 -3 -10 -14z"/>
<path d="M2580 4940 c-104 -11 -200 -70 -200 -123 0 -20 0 -20 23 1 21 20 67
42 88 42 6 0 -15 -24 -46 -52 l-55 -53 11 -40 c6 -22 18 -47 26 -55 14 -13 14
-12 8 10 -4 14 -14 37 -21 52 -8 15 -14 29 -14 32 0 11 76 -8 93 -22 11 -10
38 -16 70 -17 50 0 52 1 57 30 3 17 7 28 10 26 10 -9 69 18 79 37 12 22 6 32
-21 32 -14 0 -18 8 -18 38 0 55 -21 69 -90 62z m-110 -164 c0 -9 -7 -12 -21
-9 -16 4 -17 8 -7 14 19 13 28 11 28 -5z m125 5 c3 -6 -3 -15 -14 -20 -28 -16
-33 -14 -21 9 12 22 25 26 35 11z"/>
<path d="M1460 4780 c-8 -5 -12 -11 -9 -14 2 -3 11 -1 19 4 8 5 12 11 9 14 -2
3 -11 1 -19 -4z"/>
<path d="M1399 4741 c-19 -15 -53 -36 -76 -47 -23 -10 -43 -25 -43 -32 0 -7 5
-10 10 -7 6 3 10 2 10 -4 0 -5 -6 -11 -12 -14 -7 -2 -10 -7 -7 -11 3 -3 25 10
48 30 23 20 45 34 48 30 3 -3 19 12 36 35 16 22 27 42 25 44 -2 3 -20 -8 -39
-24z"/>
<path d="M2675 4631 c0 -57 -5 -97 -14 -115 -13 -24 -33 -36 -30 -18 3 20 -4
22 -30 6 -38 -22 -45 -51 -22 -87 l18 -29 19 40 c14 26 26 38 38 36 12 -2 16
2 12 13 -5 13 -4 14 8 4 10 -8 16 -9 21 -1 3 6 10 8 15 5 5 -3 14 4 20 15 6
11 15 18 20 15 13 -8 51 56 48 80 -3 16 -9 19 -37 17 -32 -4 -33 -3 -18 13 20
20 22 35 4 35 -7 0 -18 9 -25 21 -12 18 -11 19 6 10 27 -14 45 -38 37 -51 -3
-5 -1 -10 4 -10 6 0 11 10 11 23 0 24 -34 49 -80 60 l-25 6 0 -88z"/>
<path d="M2805 4680 c10 -11 20 -20 22 -20 2 0 -1 9 -7 20 -6 11 -16 20 -22
20 -6 0 -3 -9 7 -20z"/>
<path d="M866 4616 c3 -8 12 -12 21 -9 12 5 12 7 1 14 -20 13 -28 11 -22 -5z"/>
<path d="M2420 4510 c-20 -16 -45 -20 -122 -23 -64 -2 -99 0 -101 7 -3 6 -8 7
-13 3 -4 -4 -3 -16 2 -25 9 -14 23 -16 77 -14 44 3 73 -1 89 -11 13 -8 43 -13
68 -12 86 4 83 2 75 33 -6 26 -32 63 -44 61 -3 0 -17 -9 -31 -19z"/>
<path d="M1260 4465 c-14 -8 -20 -14 -15 -14 6 0 21 6 35 14 14 8 21 14 15 14
-5 0 -21 -6 -35 -14z"/>
<path d="M776 4295 c-15 -19 -23 -35 -19 -35 19 0 73 41 73 55 0 26 -27 16
-54 -20z"/>
<path d="M811 4241 c-23 -12 -30 -20 -22 -26 16 -9 61 14 61 32 0 16 3 16 -39
-6z"/>
<path d="M948 4149 c-16 -11 -28 -25 -28 -30 0 -13 47 19 54 37 7 18 7 18 -26
-7z"/>
<path d="M820 3869 c0 -5 5 -7 10 -4 6 3 10 8 10 11 0 2 -4 4 -10 4 -5 0 -10
-5 -10 -11z"/>
<path d="M986 3804 c-8 -22 -8 -24 6 -24 6 0 8 3 5 7 -4 3 -2 12 4 20 7 8 8
13 1 13 -5 0 -13 -7 -16 -16z"/>
<path d="M1287 3736 c-15 -24 -27 -48 -27 -53 0 -6 -7 -16 -15 -23 -12 -10
-14 -8 -10 9 2 12 0 19 -6 16 -5 -4 -9 0 -10 7 -1 7 -4 2 -8 -12 -5 -19 -2
-29 17 -44 24 -19 24 -19 49 7 17 17 28 42 34 78 5 29 7 54 6 55 -1 2 -15 -16
-30 -40z"/>
<path d="M690 3750 c0 -19 4 -21 27 -15 30 7 39 13 32 19 -2 2 -16 7 -32 11
-23 6 -27 4 -27 -15z"/>
<path d="M1370 3728 c-13 -24 -36 -60 -52 -81 -23 -28 -26 -36 -11 -30 26 9
53 34 68 63 12 24 28 90 22 90 -2 0 -14 -19 -27 -42z"/>
<path d="M921 3533 c2 -27 -1 -63 -5 -80 -4 -18 -6 -33 -3 -33 5 0 97 116 97
123 0 7 -65 37 -80 37 -7 0 -10 -17 -9 -47z"/>
<path d="M726 3554 c-10 -25 1 -29 14 -5 6 12 7 21 1 21 -5 0 -12 -7 -15 -16z"/>
<path d="M856 3485 c-4 -19 -2 -43 3 -53 8 -13 10 -5 11 36 0 60 -5 67 -14 17z"/>
<path d="M806 3501 c-4 -7 -5 -15 -2 -18 9 -9 19 4 14 18 -4 11 -6 11 -12 0z"/>
<path d="M3026 3412 c-10 -11 -16 -31 -14 -44 3 -22 5 -21 21 10 22 41 18 61
-7 34z"/>
<path d="M3315 3359 c-4 -6 -5 -13 -2 -16 7 -7 27 6 27 18 0 12 -17 12 -25 -2z"/>
<path d="M2634 435 c-8 -21 2 -45 20 -45 7 0 16 7 20 15 8 21 -3 45 -20 45 -8
0 -17 -7 -20 -15z"/>
<path d="M2797 403 c-11 -10 -8 -41 4 -49 13 -8 29 13 29 39 0 17 -20 23 -33
10z"/>
<path d="M2947 383 c-13 -12 -7 -53 7 -53 14 0 29 37 20 52 -6 10 -18 10 -27
1z"/>
<path d="M3077 350 c-3 -10 1 -24 9 -31 11 -9 16 -6 23 12 5 13 7 27 4 32 -8
14 -31 7 -36 -13z"/>
<path d="M3206 343 c-8 -19 8 -38 23 -29 16 10 13 46 -3 46 -8 0 -17 -8 -20
-17z"/>
</g>
</svg>
